<svg xmlns="http://www.w3.org/2000/svg" viewBox="0 0 720 400" font-family="Segoe UI, system-ui, sans-serif">

  <text x="360" y="28" text-anchor="middle" font-size="16" font-weight="700" fill="#1e293b">KONFLUX-11443: Human Fix vs Ralph Loop</text>
  <text x="360" y="48" text-anchor="middle" font-size="11" fill="#64748b">Race condition in fbc-fips-check-oci-ta parallel image processing</text>

  <!-- Header row -->
  <rect x="30" y="65" width="200" height="32" rx="6" fill="#475569"/>
  <text x="130" y="86" text-anchor="middle" font-size="11" font-weight="700" fill="#fff">Metric</text>
  <rect x="235" y="65" width="220" height="32" rx="6" fill="#3b82f6"/>
  <text x="345" y="86" text-anchor="middle" font-size="11" font-weight="700" fill="#fff">Human Fix (PR #3057)</text>
  <rect x="460" y="65" width="230" height="32" rx="6" fill="#8b5cf6"/>
  <text x="575" y="86" text-anchor="middle" font-size="11" font-weight="700" fill="#fff">Ralph Loop (2.8 min)</text>

  <!-- Row 1 -->
  <rect x="30" y="100" width="200" height="30" fill="#f8fafc" stroke="#e2e8f0" stroke-width="0.5"/>
  <text x="40" y="120" font-size="11" font-weight="600" fill="#334155">Root Cause Analysis</text>
  <rect x="235" y="100" width="220" height="30" fill="#f1f5f9" stroke="#e2e8f0" stroke-width="0.5"/>
  <text x="345" y="120" text-anchor="middle" font-size="11" fill="#475569">Correct — race condition</text>
  <rect x="460" y="100" width="230" height="30" fill="#dcfce7" stroke="#e2e8f0" stroke-width="0.5"/>
  <text x="575" y="120" text-anchor="middle" font-size="11" fill="#10b981" font-weight="600">Detailed + precise explanation</text>

  <!-- Row 2 -->
  <rect x="30" y="130" width="200" height="30" fill="#f8fafc" stroke="#e2e8f0" stroke-width="0.5"/>
  <text x="40" y="150" font-size="11" font-weight="600" fill="#334155">Fix Strategy</text>
  <rect x="235" y="130" width="220" height="30" fill="#f1f5f9" stroke="#e2e8f0" stroke-width="0.5"/>
  <text x="345" y="150" text-anchor="middle" font-size="11" fill="#475569">image_num prefix (arg $1)</text>
  <rect x="460" y="130" width="230" height="30" fill="#f1f5f9" stroke="#e2e8f0" stroke-width="0.5"/>
  <text x="575" y="150" text-anchor="middle" font-size="11" fill="#475569">image_num suffix (arg $4)</text>

  <!-- Row 3 -->
  <rect x="30" y="160" width="200" height="30" fill="#f8fafc" stroke="#e2e8f0" stroke-width="0.5"/>
  <text x="40" y="180" font-size="11" font-weight="600" fill="#334155">Scope</text>
  <rect x="235" y="160" width="220" height="30" fill="#f1f5f9" stroke="#e2e8f0" stroke-width="0.5"/>
  <text x="345" y="180" text-anchor="middle" font-size="11" fill="#475569">1 file, +19 / -18 lines</text>
  <rect x="460" y="160" width="230" height="30" fill="#f1f5f9" stroke="#e2e8f0" stroke-width="0.5"/>
  <text x="575" y="180" text-anchor="middle" font-size="11" fill="#475569">1 file, +19 / -18 lines</text>

  <!-- Row 4 -->
  <rect x="30" y="190" width="200" height="30" fill="#f8fafc" stroke="#e2e8f0" stroke-width="0.5"/>
  <text x="40" y="210" font-size="11" font-weight="600" fill="#334155">Path Consistency</text>
  <rect x="235" y="190" width="220" height="30" fill="#dcfce7" stroke="#e2e8f0" stroke-width="0.5"/>
  <text x="345" y="210" text-anchor="middle" font-size="11" fill="#10b981" font-weight="600">Perfect — all paths aligned</text>
  <rect x="460" y="190" width="230" height="30" fill="#fef2f2" stroke="#e2e8f0" stroke-width="0.5"/>
  <text x="575" y="210" text-anchor="middle" font-size="11" fill="#475569">99% — :latest dropped in cleanup</text>

  <!-- Row 5 -->
  <rect x="30" y="220" width="200" height="30" fill="#f8fafc" stroke="#e2e8f0" stroke-width="0.5"/>
  <text x="40" y="240" font-size="11" font-weight="600" fill="#334155">PR Documentation</text>
  <rect x="235" y="220" width="220" height="30" fill="#f1f5f9" stroke="#e2e8f0" stroke-width="0.5"/>
  <text x="345" y="240" text-anchor="middle" font-size="11" fill="#475569">Short commit message</text>
  <rect x="460" y="220" width="230" height="30" fill="#dcfce7" stroke="#e2e8f0" stroke-width="0.5"/>
  <text x="575" y="240" text-anchor="middle" font-size="11" fill="#10b981" font-weight="600">Full root cause + test plan</text>

  <!-- Row 6 -->
  <rect x="30" y="250" width="200" height="30" fill="#f8fafc" stroke="#e2e8f0" stroke-width="0.5"/>
  <text x="40" y="270" font-size="11" font-weight="600" fill="#334155">Time to Fix</text>
  <rect x="235" y="250" width="220" height="30" fill="#f1f5f9" stroke="#e2e8f0" stroke-width="0.5"/>
  <text x="345" y="270" text-anchor="middle" font-size="11" fill="#475569">~3 hours (PR to merge)</text>
  <rect x="460" y="250" width="230" height="30" fill="#dcfce7" stroke="#e2e8f0" stroke-width="0.5"/>
  <text x="575" y="270" text-anchor="middle" font-size="11" fill="#10b981" font-weight="600">2.8 minutes (autonomous)</text>

  <!-- Row 7 -->
  <rect x="30" y="280" width="200" height="30" fill="#f8fafc" stroke="#e2e8f0" stroke-width="0.5"/>
  <text x="40" y="300" font-size="11" font-weight="600" fill="#334155">Review</text>
  <rect x="235" y="280" width="220" height="30" fill="#dcfce7" stroke="#e2e8f0" stroke-width="0.5"/>
  <text x="345" y="300" text-anchor="middle" font-size="11" fill="#10b981" font-weight="600">1 human reviewer</text>
  <rect x="460" y="280" width="230" height="30" fill="#fef2f2" stroke="#e2e8f0" stroke-width="0.5"/>
  <text x="575" y="300" text-anchor="middle" font-size="11" fill="#475569">Self-review (missed mismatch)</text>

  <!-- Grade boxes -->
  <rect x="235" y="325" width="220" height="60" rx="10" fill="#3b82f6"/>
  <text x="295" y="363" font-size="20" font-weight="800" fill="#fff">A</text>
  <text x="330" y="353" font-size="12" fill="#dbeafe" font-weight="600">Human Fix</text>
  <text x="330" y="370" font-size="10" fill="#bfdbfe">Perfect precision</text>

  <rect x="460" y="325" width="230" height="60" rx="10" fill="#8b5cf6"/>
  <text x="520" y="363" font-size="20" font-weight="800" fill="#fff">A-</text>
  <text x="560" y="353" font-size="12" fill="#ede9fe" font-weight="600">Ralph Loop</text>
  <text x="560" y="370" font-size="10" fill="#ddd6fe">60x faster, better docs</text>
</svg>
